<svg id="logo-edu" viewBox="0 0 523.83 299.73" xmlns="http://www.w3.org/2000/svg">

  <style>

    .letras-edu {
      fill:#fff;
    }

  </style>

<defs>
  <filter x="-50%" y="-50%" width="200%" height="200%" filterUnits="objectBoundingBox" id="sombra-letras-edu">
      <feOffset dx="0" dy="0" in="SourceAlpha" result="shadowOffsetOuter1"></feOffset>
      <feGaussianBlur stdDeviation="10" in="shadowOffsetOuter1" result="shadowBlurOuter1"></feGaussianBlur>
      <feColorMatrix values="0 0 0 0 0   0 0 0 0 0   0 0 0 0 0  0 0 0 1 0" type="matrix" in="shadowBlurOuter1" result="shadowMatrixOuter1"></feColorMatrix>
      <feMerge>
          <feMergeNode in="shadowMatrixOuter1"></feMergeNode>
          <feMergeNode in="SourceGraphic"></feMergeNode>
      </feMerge>
  </filter>
</defs>

  <g filter="url(#sombra-letras-edu)" class="sombra-letras-edu" style="fill:#000f33; opacity: .8;">
    <path d="M166.91,125.33q0-15.42-8.21-24.49t-22.32-9.07a33.43,33.43,0,0,0-17.5,4.61,31.19,31.19,0,0,0-12,13,41.73,41.73,0,0,0-4.25,19.16q0,16.84,9.65,26.57t26.36,9.73a47.52,47.52,0,0,0,22.47-6.06q5.19-2.88,5.19-7.05a6.17,6.17,0,0,0-1.3-4,4.08,4.08,0,0,0-3.31-1.59,7.89,7.89,0,0,0-3.24.94c-1.3.62-2.09,1-2.38,1.22A66.67,66.67,0,0,1,147.9,152a26.57,26.57,0,0,1-9.22,1.44q-20,0-21.46-22.33h44.51Q166.91,131.09,166.91,125.33Zm-49.69-3.58a24.61,24.61,0,0,1,6-14q5-5.33,13.39-5.33t12.75,5.25c3,3.51,4.68,8.53,5,14.07ZM502.74,98.54a6.69,6.69,0,0,1-.58,2.73L459.44,192a6.79,6.79,0,0,1-2.52,3.1,6.36,6.36,0,0,1-3.53,1.08,7.11,7.11,0,0,1-4.68-1.73,5.39,5.39,0,0,1-2.09-4.32,7.82,7.82,0,0,1,.72-2.88L460,160.33l-27.8-59.06a5.85,5.85,0,0,1,1.73-7.2,8,8,0,0,1,5.18-1.87,6.4,6.4,0,0,1,6.2,4l22.32,49.55,22.19-49.4a6.22,6.22,0,0,1,2.52-3.17,6.68,6.68,0,0,1,3.52-1,7,7,0,0,1,4.83,1.87A5.82,5.82,0,0,1,502.74,98.54ZM419.23,72.49v89.92a2.1,2.1,0,0,1-2.1,2.1H406.78a2.1,2.1,0,0,1-2.1-2.1V72.49a6.43,6.43,0,0,1,2-5.18,7.63,7.63,0,0,1,5.18-1.73,7.92,7.92,0,0,1,5.26,1.73A6.34,6.34,0,0,1,419.23,72.49Zm-31.39,0v89.92a2.09,2.09,0,0,1-2.09,2.1H375.39a2.1,2.1,0,0,1-2.09-2.1V72.49a6.46,6.46,0,0,1,2-5.18,7.68,7.68,0,0,1,5.19-1.73,7.89,7.89,0,0,1,5.25,1.73A6.31,6.31,0,0,1,387.84,72.49Zm-202.76,92a1.88,1.88,0,0,1-1.87-1.88V99a6.48,6.48,0,0,1,2.08-5,7.43,7.43,0,0,1,5.26-2,6.81,6.81,0,0,1,5,1.88,6.63,6.63,0,0,1,1.88,4.9V102a.78.78,0,0,0,1.43.44,23.06,23.06,0,0,1,8.22-7.32,29.09,29.09,0,0,1,14-3.31q25.2,0,25.2,28.37v42.49a1.87,1.87,0,0,1-1.87,1.88h-10.8a1.88,1.88,0,0,1-1.87-1.88V120.87q0-8.94-3.53-13.11t-11-4.18q-8.79,0-14.12,5.47t-5.33,14.69v38.89a1.88,1.88,0,0,1-1.87,1.88Zm81.83,0a1.61,1.61,0,0,1-1.6-1.61V99.11a6.56,6.56,0,0,1,2.09-5.25,7.76,7.76,0,0,1,5.26-1.81,7.48,7.48,0,0,1,5.18,1.81,6.65,6.65,0,0,1,2,5.25V162.9a1.61,1.61,0,0,1-1.6,1.61ZM281,69.74a8.43,8.43,0,1,1-8.43-8.43A8.42,8.42,0,0,1,281,69.74Zm61.41,82.52v10.08a2.17,2.17,0,0,0,2.17,2.17h9.64a2.17,2.17,0,0,0,2.16-2.17v-42q0-14.4-6.84-21.46t-20.81-7.06a54.77,54.77,0,0,0-13.11,1.66,48.86,48.86,0,0,0-11.81,4.39,12.86,12.86,0,0,0-4,3.24,6.2,6.2,0,0,0-1.23,3.81,6,6,0,0,0,1.37,4,4.43,4.43,0,0,0,3.53,1.58q1.59,0,5.47-2.16a71.4,71.4,0,0,1,9.8-3.74,33.68,33.68,0,0,1,9.51-1.3q7.33,0,10.65,3.6c2.21,2.41,3.32,6.29,3.32,11.67v4.17H339q-16,0-25.13,1.88t-13.11,6.26c-2.64,2.94-4,6.94-4,12A20.36,20.36,0,0,0,300,154.14a21.83,21.83,0,0,0,9,7.85,28.58,28.58,0,0,0,12.68,2.81,24,24,0,0,0,12.6-3.24A20.23,20.23,0,0,0,342.42,152.26ZM324.27,154a13.61,13.61,0,0,1-9.36-3.31,10.83,10.83,0,0,1-3.75-8.5,8.83,8.83,0,0,1,2.6-6.84q2.6-2.37,8.64-3.39a112.6,112.6,0,0,1,17.28-1h2.6v3.74q0,8.51-5,13.9A17,17,0,0,1,324.27,154ZM88.57,94a7.1,7.1,0,0,0-5.26-2,7.23,7.23,0,0,0-5.25,1.88,6.67,6.67,0,0,0-2,5v6a22.67,22.67,0,0,0-9.29-9.8,28.4,28.4,0,0,0-14.19-3.45,30.58,30.58,0,0,0-16.34,4.39,30.2,30.2,0,0,0-11.17,12.32,39.76,39.76,0,0,0-4,18.29,40.36,40.36,0,0,0,4,18.29,29.14,29.14,0,0,0,11.16,12.25,31.31,31.31,0,0,0,16.42,4.32A28.63,28.63,0,0,0,67,158.1a22.16,22.16,0,0,0,9.22-9.87v11.09q0,20-19.88,20A36.3,36.3,0,0,1,45.72,178a72.62,72.62,0,0,1-9.65-3.81L36,174.1a2.61,2.61,0,0,0-3.6,1.26l-2.71,6.14a2.6,2.6,0,0,0,1.07,3.3l0,0q10.36,5.9,25.93,5.9,16.69,0,25.28-8.21t8.57-24.34V99.11A6.89,6.89,0,0,0,88.57,94ZM70.78,143.91q-5.32,6.19-14.69,6.19t-14.84-6.19q-5.47-6.19-5.47-17.14t5.4-17.14q5.4-6.19,14.91-6.2t14.76,6.27q5.27,6.27,5.26,17.07Q76.11,137.72,70.78,143.91Zm62.92,84.84a4.1,4.1,0,0,1,.79,2.63c0,1.55-.93,2.84-2.78,3.89a24.64,24.64,0,0,1-5.77,2.29,24,24,0,0,1-6.14.86q-8.85,0-14-5.09t-5.17-13.94a21.38,21.38,0,0,1,2.25-10,16.38,16.38,0,0,1,6.33-6.75,18,18,0,0,1,9.26-2.4,16.6,16.6,0,0,1,8.62,2.18,14.76,14.76,0,0,1,5.69,6.14,20.39,20.39,0,0,1,2,9.37q0,3.22-2.85,3.22H109.83q.45,5.17,2.92,7.61t7.2,2.44a13.58,13.58,0,0,0,4.23-.6,41.33,41.33,0,0,0,4.16-1.65,8.28,8.28,0,0,1,3.3-1.2A2.51,2.51,0,0,1,133.7,228.75Zm-21.13-19.48a11.27,11.27,0,0,0-2.74,6.89h16.94c-.1-3-.85-5.36-2.25-6.93a7.44,7.44,0,0,0-5.85-2.36A8,8,0,0,0,112.57,209.27Zm62.71-23.46a4,4,0,0,1,1.35,3.15v44.81a4.23,4.23,0,0,1-1.28,3.23,5.33,5.33,0,0,1-6.74,0,4.23,4.23,0,0,1-1.27-3.23V231.9a11.77,11.77,0,0,1-4.76,4.8,14.39,14.39,0,0,1-7.09,1.72,15.21,15.21,0,0,1-8.43-2.4,16,16,0,0,1-5.77-6.78,23.48,23.48,0,0,1-2.06-10.08,22.76,22.76,0,0,1,2.06-10A15.63,15.63,0,0,1,147,202.6a15.46,15.46,0,0,1,8.46-2.33,14.68,14.68,0,0,1,7,1.65,11.43,11.43,0,0,1,4.72,4.65V188.81a4,4,0,0,1,1.24-3,4.67,4.67,0,0,1,3.33-1.16A5,5,0,0,1,175.28,185.81ZM164.9,228.08c1.62-2.05,2.44-5,2.44-8.77s-.82-6.71-2.44-8.73a8.3,8.3,0,0,0-6.86-3,8.53,8.53,0,0,0-7,3q-2.48,3-2.47,8.62t2.47,8.84a9.24,9.24,0,0,0,13.83.08Zm52.35-26.46a4.23,4.23,0,0,1,1.27,3.23v29.07a4.08,4.08,0,0,1-1.31,3.15,4.85,4.85,0,0,1-3.41,1.2,4.51,4.51,0,0,1-3.22-1.12,4,4,0,0,1-1.2-3.08V232.2a11.91,11.91,0,0,1-4.65,4.61,13.45,13.45,0,0,1-6.59,1.61q-13.5,0-13.49-15.14V204.85a4.23,4.23,0,0,1,1.27-3.23,4.71,4.71,0,0,1,3.37-1.2,4.83,4.83,0,0,1,3.45,1.2,4.23,4.23,0,0,1,1.28,3.23v18.51q0,3.9,1.57,5.77t4.95,1.87a8.06,8.06,0,0,0,6.25-2.58,9.76,9.76,0,0,0,2.36-6.86V204.85a4.23,4.23,0,0,1,1.28-3.23,4.71,4.71,0,0,1,3.37-1.2A4.83,4.83,0,0,1,217.25,201.62Zm16.22,34.48a15.85,15.85,0,0,1-6.4-6.6,22.93,22.93,0,0,1,.11-20,16.62,16.62,0,0,1,6.63-6.79,19.71,19.71,0,0,1,9.82-2.4,21.79,21.79,0,0,1,5.88.83,19.33,19.33,0,0,1,5.21,2.25,4.64,4.64,0,0,1,2.4,4,4.17,4.17,0,0,1-.79,2.66,2.49,2.49,0,0,1-2.06,1,4.45,4.45,0,0,1-1.72-.37,15.11,15.11,0,0,1-1.8-.9,20.63,20.63,0,0,0-3.15-1.54,9.91,9.91,0,0,0-3.45-.56,8.76,8.76,0,0,0-7.15,3c-1.68,2-2.51,4.94-2.51,8.74S235.32,226,237,228a8.77,8.77,0,0,0,7.15,3,9.17,9.17,0,0,0,3.34-.57,27.65,27.65,0,0,0,3.26-1.53,14.21,14.21,0,0,1,1.95-1,4.24,4.24,0,0,1,1.65-.34,2.48,2.48,0,0,1,2,1.05,4.1,4.1,0,0,1,.82,2.62,4.15,4.15,0,0,1-.56,2.21,5,5,0,0,1-1.83,1.69,19.57,19.57,0,0,1-5.4,2.36,23.41,23.41,0,0,1-6.3.86A19.44,19.44,0,0,1,233.47,236.1Zm56.3-32q3.72,3.78,3.71,11.5v18.29a4.24,4.24,0,0,1-1.2,3.19A4.55,4.55,0,0,1,289,238.2a4.39,4.39,0,0,1-3.19-1.2,4.21,4.21,0,0,1-1.24-3.15V232.2a9.74,9.74,0,0,1-4,4.57,12,12,0,0,1-6.33,1.65,14.69,14.69,0,0,1-6.67-1.5,11.85,11.85,0,0,1-4.72-4.12,10.42,10.42,0,0,1-1.72-5.85,9.25,9.25,0,0,1,2.06-6.37c1.37-1.54,3.61-2.67,6.7-3.37a61.08,61.08,0,0,1,12.82-1.05h1.87v-1.72q0-3.67-1.57-5.36c-1.05-1.12-2.75-1.69-5.1-1.69a16.35,16.35,0,0,0-4.42.64q-2.25.65-5.32,1.84a7.46,7.46,0,0,1-2.85,1,2.82,2.82,0,0,1-2.21-1,3.73,3.73,0,0,1-.86-2.55,3.78,3.78,0,0,1,.64-2.21,5.92,5.92,0,0,1,2.13-1.76,24.5,24.5,0,0,1,6.26-2.25,32.27,32.27,0,0,1,7.16-.83Q286.05,200.27,289.77,204.06Zm-7.57,25.11a9.08,9.08,0,0,0,2.36-6.49v-1.57h-1.34a51.74,51.74,0,0,0-7.8.45,7.55,7.55,0,0,0-4,1.57,4,4,0,0,0-1.2,3.08,5.07,5.07,0,0,0,1.69,3.93,6,6,0,0,0,4.15,1.54A8,8,0,0,0,282.2,229.17Zm42.32,5.5a3,3,0,0,1-1.46,2.74,7,7,0,0,1-4.16.79l-2-.15q-12.58-.9-12.59-13.49V208.22h-3.75a4.76,4.76,0,0,1-3.11-.9,3.73,3.73,0,0,1,0-5.25,4.76,4.76,0,0,1,3.11-.9h3.75v-6.89a4.2,4.2,0,0,1,1.27-3.22,4.83,4.83,0,0,1,3.45-1.2,4.71,4.71,0,0,1,3.37,1.2,4.21,4.21,0,0,1,1.28,3.22v6.89H320a4.76,4.76,0,0,1,3.11.9,3.73,3.73,0,0,1,0,5.25,4.76,4.76,0,0,1-3.11.9h-6.37v17c0,3.7,1.69,5.67,5.09,5.92l2,.15C323.27,231.45,324.52,232.58,324.52,234.67Zm4.71-42.3a4.74,4.74,0,0,1-1.5-3.64,4.58,4.58,0,0,1,1.5-3.59,6.69,6.69,0,0,1,8.06,0,4.54,4.54,0,0,1,1.53,3.59,4.74,4.74,0,0,1-1.5,3.64,6.62,6.62,0,0,1-8.09,0Zm.71,44.74a4.24,4.24,0,0,1-1.31-3.34V204.85a4.12,4.12,0,0,1,1.31-3.3,5,5,0,0,1,3.34-1.13,5.08,5.08,0,0,1,3.37,1.13,4.05,4.05,0,0,1,1.35,3.3v28.92a4.16,4.16,0,0,1-1.35,3.34,5,5,0,0,1-3.37,1.16A4.87,4.87,0,0,1,329.94,237.11Zm23.06-1a16.1,16.1,0,0,1-6.56-6.67,21.14,21.14,0,0,1-2.32-10.12,20.9,20.9,0,0,1,2.32-10.08A16.18,16.18,0,0,1,353,202.6a22,22,0,0,1,19.71,0,15.91,15.91,0,0,1,6.52,6.63,21.12,21.12,0,0,1,2.29,10.08,21.37,21.37,0,0,1-2.29,10.12,15.83,15.83,0,0,1-6.52,6.67,22.09,22.09,0,0,1-19.71,0Zm16.75-7.95q2.4-3,2.4-8.84c0-3.85-.8-6.78-2.4-8.81a8.28,8.28,0,0,0-6.89-3,8.4,8.4,0,0,0-6.94,3c-1.62,2-2.43,5-2.43,8.81s.8,6.85,2.4,8.84a8.3,8.3,0,0,0,6.89,3A8.39,8.39,0,0,0,369.75,228.15ZM418.92,204q3.21,3.75,3.22,11.32v18.43a4.37,4.37,0,0,1-1.24,3.3,4.68,4.68,0,0,1-3.41,1.2,4.83,4.83,0,0,1-3.45-1.2,4.31,4.31,0,0,1-1.27-3.3V215.86c0-2.84-.54-4.92-1.61-6.22s-2.76-1.95-5.06-1.95a8.53,8.53,0,0,0-6.48,2.55,9.43,9.43,0,0,0-2.44,6.82v16.71a4.31,4.31,0,0,1-1.27,3.3,4.83,4.83,0,0,1-3.45,1.2,4.68,4.68,0,0,1-3.41-1.2,4.4,4.4,0,0,1-1.24-3.3v-29a4.13,4.13,0,0,1,1.28-3.15,4.83,4.83,0,0,1,3.45-1.2,4.44,4.44,0,0,1,3.18,1.17,4,4,0,0,1,1.24,3v2a12.73,12.73,0,0,1,5-4.72,15.1,15.1,0,0,1,7.12-1.65Q415.69,200.27,418.92,204Z"/>
  </g>

  <g class="letras-edu">
    <path d="M166.91,125.33q0-15.42-8.21-24.49t-22.32-9.07a33.43,33.43,0,0,0-17.5,4.61,31.19,31.19,0,0,0-12,13,41.73,41.73,0,0,0-4.25,19.16q0,16.84,9.65,26.57t26.36,9.73a47.52,47.52,0,0,0,22.47-6.06q5.19-2.88,5.19-7.05a6.17,6.17,0,0,0-1.3-4,4.08,4.08,0,0,0-3.31-1.59,7.89,7.89,0,0,0-3.24.94c-1.3.62-2.09,1-2.38,1.22A66.67,66.67,0,0,1,147.9,152a26.57,26.57,0,0,1-9.22,1.44q-20,0-21.46-22.33h44.51Q166.91,131.09,166.91,125.33Zm-49.69-3.58a24.61,24.61,0,0,1,6-14q5-5.33,13.39-5.33t12.75,5.25c3,3.51,4.68,8.53,5,14.07ZM502.74,98.54a6.69,6.69,0,0,1-.58,2.73L459.44,192a6.79,6.79,0,0,1-2.52,3.1,6.36,6.36,0,0,1-3.53,1.08,7.11,7.11,0,0,1-4.68-1.73,5.39,5.39,0,0,1-2.09-4.32,7.82,7.82,0,0,1,.72-2.88L460,160.33l-27.8-59.06a5.85,5.85,0,0,1,1.73-7.2,8,8,0,0,1,5.18-1.87,6.4,6.4,0,0,1,6.2,4l22.32,49.55,22.19-49.4a6.22,6.22,0,0,1,2.52-3.17,6.68,6.68,0,0,1,3.52-1,7,7,0,0,1,4.83,1.87A5.82,5.82,0,0,1,502.74,98.54ZM419.23,72.49v89.92a2.1,2.1,0,0,1-2.1,2.1H406.78a2.1,2.1,0,0,1-2.1-2.1V72.49a6.43,6.43,0,0,1,2-5.18,7.63,7.63,0,0,1,5.18-1.73,7.92,7.92,0,0,1,5.26,1.73A6.34,6.34,0,0,1,419.23,72.49Zm-31.39,0v89.92a2.09,2.09,0,0,1-2.09,2.1H375.39a2.1,2.1,0,0,1-2.09-2.1V72.49a6.46,6.46,0,0,1,2-5.18,7.68,7.68,0,0,1,5.19-1.73,7.89,7.89,0,0,1,5.25,1.73A6.31,6.31,0,0,1,387.84,72.49Zm-202.76,92a1.88,1.88,0,0,1-1.87-1.88V99a6.48,6.48,0,0,1,2.08-5,7.43,7.43,0,0,1,5.26-2,6.81,6.81,0,0,1,5,1.88,6.63,6.63,0,0,1,1.88,4.9V102a.78.78,0,0,0,1.43.44,23.06,23.06,0,0,1,8.22-7.32,29.09,29.09,0,0,1,14-3.31q25.2,0,25.2,28.37v42.49a1.87,1.87,0,0,1-1.87,1.88h-10.8a1.88,1.88,0,0,1-1.87-1.88V120.87q0-8.94-3.53-13.11t-11-4.18q-8.79,0-14.12,5.47t-5.33,14.69v38.89a1.88,1.88,0,0,1-1.87,1.88Zm81.83,0a1.61,1.61,0,0,1-1.6-1.61V99.11a6.56,6.56,0,0,1,2.09-5.25,7.76,7.76,0,0,1,5.26-1.81,7.48,7.48,0,0,1,5.18,1.81,6.65,6.65,0,0,1,2,5.25V162.9a1.61,1.61,0,0,1-1.6,1.61ZM281,69.74a8.43,8.43,0,1,1-8.43-8.43A8.42,8.42,0,0,1,281,69.74Zm61.41,82.52v10.08a2.17,2.17,0,0,0,2.17,2.17h9.64a2.17,2.17,0,0,0,2.16-2.17v-42q0-14.4-6.84-21.46t-20.81-7.06a54.77,54.77,0,0,0-13.11,1.66,48.86,48.86,0,0,0-11.81,4.39,12.86,12.86,0,0,0-4,3.24,6.2,6.2,0,0,0-1.23,3.81,6,6,0,0,0,1.37,4,4.43,4.43,0,0,0,3.53,1.58q1.59,0,5.47-2.16a71.4,71.4,0,0,1,9.8-3.74,33.68,33.68,0,0,1,9.51-1.3q7.33,0,10.65,3.6c2.21,2.41,3.32,6.29,3.32,11.67v4.17H339q-16,0-25.13,1.88t-13.11,6.26c-2.64,2.94-4,6.94-4,12A20.36,20.36,0,0,0,300,154.14a21.83,21.83,0,0,0,9,7.85,28.58,28.58,0,0,0,12.68,2.81,24,24,0,0,0,12.6-3.24A20.23,20.23,0,0,0,342.42,152.26ZM324.27,154a13.61,13.61,0,0,1-9.36-3.31,10.83,10.83,0,0,1-3.75-8.5,8.83,8.83,0,0,1,2.6-6.84q2.6-2.37,8.64-3.39a112.6,112.6,0,0,1,17.28-1h2.6v3.74q0,8.51-5,13.9A17,17,0,0,1,324.27,154ZM88.57,94a7.1,7.1,0,0,0-5.26-2,7.23,7.23,0,0,0-5.25,1.88,6.67,6.67,0,0,0-2,5v6a22.67,22.67,0,0,0-9.29-9.8,28.4,28.4,0,0,0-14.19-3.45,30.58,30.58,0,0,0-16.34,4.39,30.2,30.2,0,0,0-11.17,12.32,39.76,39.76,0,0,0-4,18.29,40.36,40.36,0,0,0,4,18.29,29.14,29.14,0,0,0,11.16,12.25,31.31,31.31,0,0,0,16.42,4.32A28.63,28.63,0,0,0,67,158.1a22.16,22.16,0,0,0,9.22-9.87v11.09q0,20-19.88,20A36.3,36.3,0,0,1,45.72,178a72.62,72.62,0,0,1-9.65-3.81L36,174.1a2.61,2.61,0,0,0-3.6,1.26l-2.71,6.14a2.6,2.6,0,0,0,1.07,3.3l0,0q10.36,5.9,25.93,5.9,16.69,0,25.28-8.21t8.57-24.34V99.11A6.89,6.89,0,0,0,88.57,94ZM70.78,143.91q-5.32,6.19-14.69,6.19t-14.84-6.19q-5.47-6.19-5.47-17.14t5.4-17.14q5.4-6.19,14.91-6.2t14.76,6.27q5.27,6.27,5.26,17.07Q76.11,137.72,70.78,143.91Zm62.92,84.84a4.1,4.1,0,0,1,.79,2.63c0,1.55-.93,2.84-2.78,3.89a24.64,24.64,0,0,1-5.77,2.29,24,24,0,0,1-6.14.86q-8.85,0-14-5.09t-5.17-13.94a21.38,21.38,0,0,1,2.25-10,16.38,16.38,0,0,1,6.33-6.75,18,18,0,0,1,9.26-2.4,16.6,16.6,0,0,1,8.62,2.18,14.76,14.76,0,0,1,5.69,6.14,20.39,20.39,0,0,1,2,9.37q0,3.22-2.85,3.22H109.83q.45,5.17,2.92,7.61t7.2,2.44a13.58,13.58,0,0,0,4.23-.6,41.33,41.33,0,0,0,4.16-1.65,8.28,8.28,0,0,1,3.3-1.2A2.51,2.51,0,0,1,133.7,228.75Zm-21.13-19.48a11.27,11.27,0,0,0-2.74,6.89h16.94c-.1-3-.85-5.36-2.25-6.93a7.44,7.44,0,0,0-5.85-2.36A8,8,0,0,0,112.57,209.27Zm62.71-23.46a4,4,0,0,1,1.35,3.15v44.81a4.23,4.23,0,0,1-1.28,3.23,5.33,5.33,0,0,1-6.74,0,4.23,4.23,0,0,1-1.27-3.23V231.9a11.77,11.77,0,0,1-4.76,4.8,14.39,14.39,0,0,1-7.09,1.72,15.21,15.21,0,0,1-8.43-2.4,16,16,0,0,1-5.77-6.78,23.48,23.48,0,0,1-2.06-10.08,22.76,22.76,0,0,1,2.06-10A15.63,15.63,0,0,1,147,202.6a15.46,15.46,0,0,1,8.46-2.33,14.68,14.68,0,0,1,7,1.65,11.43,11.43,0,0,1,4.72,4.65V188.81a4,4,0,0,1,1.24-3,4.67,4.67,0,0,1,3.33-1.16A5,5,0,0,1,175.28,185.81ZM164.9,228.08c1.62-2.05,2.44-5,2.44-8.77s-.82-6.71-2.44-8.73a8.3,8.3,0,0,0-6.86-3,8.53,8.53,0,0,0-7,3q-2.48,3-2.47,8.62t2.47,8.84a9.24,9.24,0,0,0,13.83.08Zm52.35-26.46a4.23,4.23,0,0,1,1.27,3.23v29.07a4.08,4.08,0,0,1-1.31,3.15,4.85,4.85,0,0,1-3.41,1.2,4.51,4.51,0,0,1-3.22-1.12,4,4,0,0,1-1.2-3.08V232.2a11.91,11.91,0,0,1-4.65,4.61,13.45,13.45,0,0,1-6.59,1.61q-13.5,0-13.49-15.14V204.85a4.23,4.23,0,0,1,1.27-3.23,4.71,4.71,0,0,1,3.37-1.2,4.83,4.83,0,0,1,3.45,1.2,4.23,4.23,0,0,1,1.28,3.23v18.51q0,3.9,1.57,5.77t4.95,1.87a8.06,8.06,0,0,0,6.25-2.58,9.76,9.76,0,0,0,2.36-6.86V204.85a4.23,4.23,0,0,1,1.28-3.23,4.71,4.71,0,0,1,3.37-1.2A4.83,4.83,0,0,1,217.25,201.62Zm16.22,34.48a15.85,15.85,0,0,1-6.4-6.6,22.93,22.93,0,0,1,.11-20,16.62,16.62,0,0,1,6.63-6.79,19.71,19.71,0,0,1,9.82-2.4,21.79,21.79,0,0,1,5.88.83,19.33,19.33,0,0,1,5.21,2.25,4.64,4.64,0,0,1,2.4,4,4.17,4.17,0,0,1-.79,2.66,2.49,2.49,0,0,1-2.06,1,4.45,4.45,0,0,1-1.72-.37,15.11,15.11,0,0,1-1.8-.9,20.63,20.63,0,0,0-3.15-1.54,9.91,9.91,0,0,0-3.45-.56,8.76,8.76,0,0,0-7.15,3c-1.68,2-2.51,4.94-2.51,8.74S235.32,226,237,228a8.77,8.77,0,0,0,7.15,3,9.17,9.17,0,0,0,3.34-.57,27.65,27.65,0,0,0,3.26-1.53,14.21,14.21,0,0,1,1.95-1,4.24,4.24,0,0,1,1.65-.34,2.48,2.48,0,0,1,2,1.05,4.1,4.1,0,0,1,.82,2.62,4.15,4.15,0,0,1-.56,2.21,5,5,0,0,1-1.83,1.69,19.57,19.57,0,0,1-5.4,2.36,23.41,23.41,0,0,1-6.3.86A19.44,19.44,0,0,1,233.47,236.1Zm56.3-32q3.72,3.78,3.71,11.5v18.29a4.24,4.24,0,0,1-1.2,3.19A4.55,4.55,0,0,1,289,238.2a4.39,4.39,0,0,1-3.19-1.2,4.21,4.21,0,0,1-1.24-3.15V232.2a9.74,9.74,0,0,1-4,4.57,12,12,0,0,1-6.33,1.65,14.69,14.69,0,0,1-6.67-1.5,11.85,11.85,0,0,1-4.72-4.12,10.42,10.42,0,0,1-1.72-5.85,9.25,9.25,0,0,1,2.06-6.37c1.37-1.54,3.61-2.67,6.7-3.37a61.08,61.08,0,0,1,12.82-1.05h1.87v-1.72q0-3.67-1.57-5.36c-1.05-1.12-2.75-1.69-5.1-1.69a16.35,16.35,0,0,0-4.42.64q-2.25.65-5.32,1.84a7.46,7.46,0,0,1-2.85,1,2.82,2.82,0,0,1-2.21-1,3.73,3.73,0,0,1-.86-2.55,3.78,3.78,0,0,1,.64-2.21,5.92,5.92,0,0,1,2.13-1.76,24.5,24.5,0,0,1,6.26-2.25,32.27,32.27,0,0,1,7.16-.83Q286.05,200.27,289.77,204.06Zm-7.57,25.11a9.08,9.08,0,0,0,2.36-6.49v-1.57h-1.34a51.74,51.74,0,0,0-7.8.45,7.55,7.55,0,0,0-4,1.57,4,4,0,0,0-1.2,3.08,5.07,5.07,0,0,0,1.69,3.93,6,6,0,0,0,4.15,1.54A8,8,0,0,0,282.2,229.17Zm42.32,5.5a3,3,0,0,1-1.46,2.74,7,7,0,0,1-4.16.79l-2-.15q-12.58-.9-12.59-13.49V208.22h-3.75a4.76,4.76,0,0,1-3.11-.9,3.73,3.73,0,0,1,0-5.25,4.76,4.76,0,0,1,3.11-.9h3.75v-6.89a4.2,4.2,0,0,1,1.27-3.22,4.83,4.83,0,0,1,3.45-1.2,4.71,4.71,0,0,1,3.37,1.2,4.21,4.21,0,0,1,1.28,3.22v6.89H320a4.76,4.76,0,0,1,3.11.9,3.73,3.73,0,0,1,0,5.25,4.76,4.76,0,0,1-3.11.9h-6.37v17c0,3.7,1.69,5.67,5.09,5.92l2,.15C323.27,231.45,324.52,232.58,324.52,234.67Zm4.71-42.3a4.74,4.74,0,0,1-1.5-3.64,4.58,4.58,0,0,1,1.5-3.59,6.69,6.69,0,0,1,8.06,0,4.54,4.54,0,0,1,1.53,3.59,4.74,4.74,0,0,1-1.5,3.64,6.62,6.62,0,0,1-8.09,0Zm.71,44.74a4.24,4.24,0,0,1-1.31-3.34V204.85a4.12,4.12,0,0,1,1.31-3.3,5,5,0,0,1,3.34-1.13,5.08,5.08,0,0,1,3.37,1.13,4.05,4.05,0,0,1,1.35,3.3v28.92a4.16,4.16,0,0,1-1.35,3.34,5,5,0,0,1-3.37,1.16A4.87,4.87,0,0,1,329.94,237.11Zm23.06-1a16.1,16.1,0,0,1-6.56-6.67,21.14,21.14,0,0,1-2.32-10.12,20.9,20.9,0,0,1,2.32-10.08A16.18,16.18,0,0,1,353,202.6a22,22,0,0,1,19.71,0,15.91,15.91,0,0,1,6.52,6.63,21.12,21.12,0,0,1,2.29,10.08,21.37,21.37,0,0,1-2.29,10.12,15.83,15.83,0,0,1-6.52,6.67,22.09,22.09,0,0,1-19.71,0Zm16.75-7.95q2.4-3,2.4-8.84c0-3.85-.8-6.78-2.4-8.81a8.28,8.28,0,0,0-6.89-3,8.4,8.4,0,0,0-6.94,3c-1.62,2-2.43,5-2.43,8.81s.8,6.85,2.4,8.84a8.3,8.3,0,0,0,6.89,3A8.39,8.39,0,0,0,369.75,228.15ZM418.92,204q3.21,3.75,3.22,11.32v18.43a4.37,4.37,0,0,1-1.24,3.3,4.68,4.68,0,0,1-3.41,1.2,4.83,4.83,0,0,1-3.45-1.2,4.31,4.31,0,0,1-1.27-3.3V215.86c0-2.84-.54-4.92-1.61-6.22s-2.76-1.95-5.06-1.95a8.53,8.53,0,0,0-6.48,2.55,9.43,9.43,0,0,0-2.44,6.82v16.71a4.31,4.31,0,0,1-1.27,3.3,4.83,4.83,0,0,1-3.45,1.2,4.68,4.68,0,0,1-3.41-1.2,4.4,4.4,0,0,1-1.24-3.3v-29a4.13,4.13,0,0,1,1.28-3.15,4.83,4.83,0,0,1,3.45-1.2,4.44,4.44,0,0,1,3.18,1.17,4,4,0,0,1,1.24,3v2a12.73,12.73,0,0,1,5-4.72,15.1,15.1,0,0,1,7.12-1.65Q415.69,200.27,418.92,204Z"/>
  </g>

</svg>
